<?xml version="1.0" encoding="UTF-8"?>
<svg width="150px" height="45px" viewBox="0 0 150 45" version="1.1" xmlns="http://www.w3.org/2000/svg" xmlns:xlink="http://www.w3.org/1999/xlink">
    <!-- Generator: Sketch 52.1 (67048) - http://www.bohemiancoding.com/sketch -->
    <title>Apple Store white</title>
    <desc>Created with Sketch.</desc>
    <g id="Page-5" stroke="none" stroke-width="1" fill="none" fill-rule="evenodd">
        <g id="Landing" transform="translate(-482.000000, -2229.000000)">
            <g id="Apple-Store-white" transform="translate(482.000000, 2229.000000)">
                <g id="Apple-Store">
                    <rect id="button" stroke="#FFFFFF" stroke-width="0.7" fill="#101E51" x="0.35" y="0.35" width="148.4" height="44.1" rx="7"></rect>
                    <path d="M51.2914062,14.728418 C51.6366228,14.728418 51.9203114,14.6925297 52.1424805,14.620752 C52.5389668,14.4874505 52.8636706,14.2311054 53.1166016,13.851709 C53.3182627,13.5475082 53.4635249,13.1578637 53.5523926,12.6827637 C53.6036624,12.3990708 53.6292969,12.1358899 53.6292969,11.8932129 C53.6292969,10.9601028 53.4438739,10.2355006 53.0730225,9.71938477 C52.702171,9.2032689 52.1048869,8.94521484 51.2811523,8.94521484 L49.4713379,8.94521484 L49.4713379,14.728418 L51.2914062,14.728418 Z M48.4459473,8.06850586 L51.4964844,8.06850586 C52.5321341,8.06850586 53.3353487,8.43593383 53.9061523,9.17080078 C54.4154322,9.83389003 54.6700684,10.6832468 54.6700684,11.7188965 C54.6700684,12.5187052 54.5196792,13.2415983 54.2188965,13.8875977 C53.6891087,15.0292049 52.7782291,15.6 51.4862305,15.6 L48.4459473,15.6 L48.4459473,8.06850586 Z M58.8784766,15.0052734 C59.4902961,15.0052734 59.9098475,14.7737084 60.1371436,14.3105713 C60.3644396,13.8474342 60.478086,13.3321806 60.478086,12.7647949 C60.478086,12.252097 60.3960555,11.835109 60.2319922,11.5138184 C59.9722253,11.0079565 59.5244759,10.7550293 58.8887305,10.7550293 C58.3247628,10.7550293 57.9146107,10.9703592 57.6582618,11.4010254 C57.4019128,11.8316916 57.2737403,12.3512177 57.2737403,12.9596191 C57.2737403,13.5440947 57.4019128,14.0311504 57.6582618,14.4208008 C57.9146107,14.8104512 58.3213449,15.0052734 58.8784766,15.0052734 Z M58.9143653,9.95009766 C59.6218883,9.95009766 60.2200269,10.1859351 60.7087989,10.6576172 C61.1975708,11.1292992 61.4419532,11.82314 61.4419532,12.7391602 C61.4419532,13.6244185 61.2266233,14.3558565 60.7959571,14.9334961 C60.3652908,15.5111357 59.6970846,15.7999512 58.7913184,15.7999512 C58.0359435,15.7999512 57.436096,15.5444606 56.9917578,15.0334717 C56.5474197,14.5224828 56.3252539,13.8363324 56.3252539,12.975 C56.3252539,12.0521438 56.5593825,11.3172879 57.0276465,10.7704102 C57.4959106,10.2235324 58.1248105,9.95009766 58.9143653,9.95009766 Z M63.8046583,10.1090332 L64.8608106,14.4361816 L65.9323438,10.1090332 L66.9679883,10.1090332 L68.0446485,14.4105469 L69.1674512,10.1090332 L70.0903028,10.1090332 L68.4958204,15.6 L67.5370801,15.6 L66.4194044,11.3497559 L65.3376173,15.6 L64.378877,15.6 L62.7946485,10.1090332 L63.8046583,10.1090332 Z M71.8018849,10.1090332 L72.6785939,10.1090332 L72.6785939,10.8883301 C72.9383608,10.5670394 73.2135045,10.3363288 73.5040333,10.1961914 C73.7945621,10.056054 74.1175569,9.98598633 74.4730274,9.98598633 C75.2523282,9.98598633 75.7786901,10.2577121 76.052129,10.8011719 C76.2025204,11.0985366 76.2777149,11.5240695 76.2777149,12.0777832 L76.2777149,15.6 L75.3394825,15.6 L75.3394825,12.1393066 C75.3394825,11.804344 75.2899225,11.5343272 75.1908009,11.329248 C75.0267376,10.9874495 74.7293773,10.8165527 74.298711,10.8165527 C74.0799599,10.8165527 73.9005184,10.8387693 73.760381,10.8832031 C73.50745,10.9583988 73.2852843,11.1087879 73.0938771,11.334375 C72.9400677,11.5155282 72.8400931,11.7026602 72.7939503,11.8957764 C72.7478075,12.0888926 72.7247364,12.3648908 72.7247364,12.7237793 L72.7247364,15.6 L71.8018849,15.6 L71.8018849,10.1090332 Z M78.5071193,8.06850586 L79.4299708,8.06850586 L79.4299708,15.6 L78.5071193,15.6 L78.5071193,8.06850586 Z M83.8332033,15.0052734 C84.4450228,15.0052734 84.8645742,14.7737084 85.0918703,14.3105713 C85.3191663,13.8474342 85.4328127,13.3321806 85.4328127,12.7647949 C85.4328127,12.252097 85.3507822,11.835109 85.1867189,11.5138184 C84.926952,11.0079565 84.4792026,10.7550293 83.8434572,10.7550293 C83.2794895,10.7550293 82.8693374,10.9703592 82.6129884,11.4010254 C82.3566395,11.8316916 82.228467,12.3512177 82.228467,12.9596191 C82.228467,13.5440947 82.3566395,14.0311504 82.6129884,14.4208008 C82.8693374,14.8104512 83.2760716,15.0052734 83.8332033,15.0052734 Z M83.869092,9.95009766 C84.576615,9.95009766 85.1747536,10.1859351 85.6635256,10.6576172 C86.1522975,11.1292992 86.3966799,11.82314 86.3966799,12.7391602 C86.3966799,13.6244185 86.18135,14.3558565 85.7506838,14.9334961 C85.3200175,15.5111357 84.6518113,15.7999512 83.7460451,15.7999512 C82.9906702,15.7999512 82.3908227,15.5444606 81.9464845,15.0334717 C81.5021464,14.5224828 81.2799806,13.8363324 81.2799806,12.975 C81.2799806,12.0521438 81.5141092,11.3172879 81.9823732,10.7704102 C82.4506373,10.2235324 83.0795372,9.95009766 83.869092,9.95009766 Z M89.0413674,14.1388184 C89.0413674,14.4054213 89.1387785,14.6156242 89.3336037,14.7694336 C89.5284289,14.923243 89.7591395,15.0001465 90.0257424,15.0001465 C90.350451,15.0001465 90.664901,14.9249519 90.9691018,14.7745605 C91.4817996,14.5250476 91.7381447,14.1166044 91.7381447,13.5492187 L91.7381447,12.8058105 C91.6253512,12.8775882 91.480089,12.9374021 91.3023537,12.9852539 C91.1246185,13.0331057 90.9503038,13.0672851 90.7794045,13.087793 L90.2205666,13.1595703 C89.885604,13.2040041 89.6343858,13.2740718 89.4669045,13.3697754 C89.1832117,13.5304207 89.0413674,13.7867658 89.0413674,14.1388184 Z M91.276719,12.2726074 C91.4886341,12.2452635 91.6304784,12.1563972 91.7022561,12.0060059 C91.7432719,11.9239742 91.7637795,11.8060555 91.7637795,11.6522461 C91.7637795,11.3377914 91.6518421,11.1096443 91.4279641,10.9677979 C91.204086,10.8259514 90.8836546,10.7550293 90.4666604,10.7550293 C89.9847244,10.7550293 89.6429309,10.8849108 89.4412697,11.1446777 C89.3284762,11.2882331 89.2549906,11.5018541 89.2208107,11.7855469 L88.3594826,11.7855469 C88.3765726,11.1087857 88.5961748,10.6379652 89.0182961,10.3730713 C89.4404173,10.1081774 89.9300365,9.97573242 90.4871682,9.97573242 C91.1331675,9.97573242 91.6578204,10.0987781 92.0611428,10.344873 C92.4610471,10.590968 92.6609963,10.9737767 92.6609963,11.4933105 L92.6609963,14.6566406 C92.6609963,14.7523442 92.6806494,14.8292478 92.7199563,14.8873535 C92.7592631,14.9454593 92.842148,14.9745117 92.9686135,14.9745117 C93.0096293,14.9745117 93.0557714,14.9719483 93.1070412,14.9668213 C93.158311,14.9616943 93.212998,14.954004 93.2711037,14.94375 L93.2711037,15.6256348 C93.1275483,15.6666506 93.0181744,15.6922851 92.9429787,15.7025391 C92.867783,15.712793 92.765245,15.7179199 92.6353615,15.7179199 C92.3174888,15.7179199 92.0867783,15.6051281 91.9432229,15.379541 C91.8680272,15.2599115 91.8150492,15.0907238 91.7842873,14.8719727 C91.5962981,15.1180676 91.3262813,15.3316885 90.9742287,15.5128418 C90.6221762,15.693995 90.2342406,15.7845703 89.8104104,15.7845703 C89.3011305,15.7845703 88.8849969,15.6299088 88.5619973,15.3205811 C88.2389976,15.0112533 88.0775002,14.6241722 88.0775002,14.1593262 C88.0775002,13.6500463 88.2364342,13.2552748 88.5543068,12.975 C88.8721795,12.6947252 89.2891675,12.5221195 89.8052834,12.4571777 L91.276719,12.2726074 Z M95.5979202,12.9186035 C95.5979202,13.5064971 95.7226748,13.9986797 95.9721877,14.395166 C96.2217007,14.7916524 96.621599,14.9898926 97.1718948,14.9898926 C97.599143,14.9898926 97.9503358,14.8061786 98.2254836,14.4387451 C98.5006315,14.0713116 98.6382034,13.5440952 98.6382034,12.8570801 C98.6382034,12.163229 98.4963591,11.6496843 98.2126662,11.3164307 C97.9289734,10.983177 97.5786351,10.8165527 97.1616409,10.8165527 C96.6967948,10.8165527 96.3199675,10.9942853 96.0311477,11.3497559 C95.7423279,11.7052264 95.5979202,12.2281704 95.5979202,12.9186035 Z M96.9873245,10.0116211 C97.4077367,10.0116211 97.759784,10.1004874 98.0434768,10.2782227 C98.2075401,10.3807622 98.3938176,10.5602038 98.6023147,10.8165527 L98.6023147,8.04287109 L99.4892776,8.04287109 L99.4892776,15.6 L98.6587112,15.6 L98.6587112,14.836084 C98.4433781,15.1744646 98.1887419,15.4188469 97.8947952,15.5692383 C97.6008484,15.7196297 97.2641818,15.7948242 96.8847854,15.7948242 C96.2729659,15.7948242 95.7431861,15.5376246 95.2954299,15.0232178 C94.8476738,14.5088109 94.6237991,13.8243695 94.6237991,12.969873 C94.6237991,12.1700644 94.8280207,11.4770781 95.23647,10.8908936 C95.6449193,10.304709 96.2285316,10.0116211 96.9873245,10.0116211 Z M107.629239,15.0052734 C108.241058,15.0052734 108.66061,14.7737084 108.887906,14.3105713 C109.115202,13.8474342 109.228848,13.3321806 109.228848,12.7647949 C109.228848,12.252097 109.146818,11.835109 108.982754,11.5138184 C108.722987,11.0079565 108.275238,10.7550293 107.639492,10.7550293 C107.075525,10.7550293 106.665373,10.9703592 106.409024,11.4010254 C106.152675,11.8316916 106.024502,12.3512177 106.024502,12.9596191 C106.024502,13.5440947 106.152675,14.0311504 106.409024,14.4208008 C106.665373,14.8104512 107.072107,15.0052734 107.629239,15.0052734 Z M107.665127,9.95009766 C108.37265,9.95009766 108.970789,10.1859351 109.459561,10.6576172 C109.948333,11.1292992 110.192715,11.82314 110.192715,12.7391602 C110.192715,13.6244185 109.977385,14.3558565 109.546719,14.9334961 C109.116053,15.5111357 108.447847,15.7999512 107.54208,15.7999512 C106.786706,15.7999512 106.186858,15.5444606 105.74252,15.0334717 C105.298182,14.5224828 105.076016,13.8363324 105.076016,12.975 C105.076016,12.0521438 105.310144,11.3172879 105.778409,10.7704102 C106.246673,10.2235324 106.875573,9.95009766 107.665127,9.95009766 Z M112.129883,10.1090332 L113.006592,10.1090332 L113.006592,10.8883301 C113.266359,10.5670394 113.541503,10.3363288 113.832032,10.1961914 C114.12256,10.056054 114.445555,9.98598633 114.801026,9.98598633 C115.580326,9.98598633 116.106688,10.2577121 116.380127,10.8011719 C116.530519,11.0985366 116.605713,11.5240695 116.605713,12.0777832 L116.605713,15.6 L115.667481,15.6 L115.667481,12.1393066 C115.667481,11.804344 115.617921,11.5343272 115.518799,11.329248 C115.354736,10.9874495 115.057376,10.8165527 114.626709,10.8165527 C114.407958,10.8165527 114.228517,10.8387693 114.088379,10.8832031 C113.835448,10.9583988 113.613283,11.1087879 113.421875,11.334375 C113.268066,11.5155282 113.168091,11.7026602 113.121949,11.8957764 C113.075806,12.0888926 113.052735,12.3648908 113.052735,12.7237793 L113.052735,15.6 L112.129883,15.6 L112.129883,10.1090332 Z M122.751289,8.57607422 L123.684395,8.57607422 L123.684395,10.1090332 L124.561104,10.1090332 L124.561104,10.8626953 L123.684395,10.8626953 L123.684395,14.4464355 C123.684395,14.6378428 123.749336,14.7660153 123.879219,14.830957 C123.950997,14.8685549 124.070625,14.8873535 124.238106,14.8873535 C124.28254,14.8873535 124.330391,14.886499 124.381661,14.88479 C124.43293,14.883081 124.492744,14.8788086 124.561104,14.8719727 L124.561104,15.6 C124.455146,15.6307619 124.344918,15.6529784 124.230415,15.6666504 C124.115913,15.6803223 123.992013,15.6871582 123.858711,15.6871582 C123.428045,15.6871582 123.135812,15.5769298 122.982002,15.3564697 C122.828193,15.1360096 122.751289,14.8497576 122.751289,14.4977051 L122.751289,10.8626953 L122.007881,10.8626953 L122.007881,10.1090332 L122.751289,10.1090332 L122.751289,8.57607422 Z M126.323956,8.04287109 L127.246807,8.04287109 L127.246807,10.8524414 C127.465558,10.5755846 127.662089,10.3807623 127.836407,10.2679687 C128.133771,10.0731436 128.504617,9.97573242 128.948956,9.97573242 C129.745346,9.97573242 130.28538,10.2542941 130.569073,10.8114258 C130.722882,11.1156265 130.799786,11.5377414 130.799786,12.0777832 L130.799786,15.6 L129.851299,15.6 L129.851299,12.1393066 C129.851299,11.7359843 129.80003,11.440333 129.697491,11.2523437 C129.530009,10.951561 129.215559,10.8011719 128.754131,10.8011719 C128.371317,10.8011719 128.024397,10.9327624 127.71336,11.1959473 C127.402323,11.4591322 127.246807,11.9564417 127.246807,12.6878906 L127.246807,15.6 L126.323956,15.6 L126.323956,8.04287109 Z M135.290176,9.98598633 C135.679827,9.98598633 136.057508,10.0774161 136.423233,10.2602783 C136.788957,10.4431406 137.067519,10.6798325 137.258926,10.9703613 C137.443497,11.2472182 137.566543,11.570213 137.628067,11.9393555 C137.682755,12.1922864 137.710098,12.5956027 137.710098,13.1493164 L133.68544,13.1493164 C133.70253,13.7064481 133.83412,14.153343 134.080215,14.4900146 C134.32631,14.8266863 134.70741,14.9950195 135.223526,14.9950195 C135.705462,14.9950195 136.08998,14.8360856 136.37709,14.5182129 C136.541154,14.3336417 136.657363,14.1200207 136.725723,13.8773437 L137.633194,13.8773437 C137.609268,14.0790049 137.529801,14.3037341 137.394791,14.5515381 C137.25978,14.7993421 137.108536,15.0018547 136.941055,15.159082 C136.66078,15.4325209 136.31386,15.6170894 135.900284,15.712793 C135.678115,15.7674807 135.426896,15.7948242 135.146622,15.7948242 C134.463024,15.7948242 133.883684,15.5461695 133.408584,15.0488525 C132.933484,14.5515356 132.695938,13.8551314 132.695938,12.9596191 C132.695938,12.0777788 132.935193,11.3617215 133.413711,10.8114258 C133.892229,10.2611301 134.517711,9.98598633 135.290176,9.98598633 Z M136.761612,12.4161621 C136.724014,12.0162578 136.636857,11.6966809 136.500137,11.4574219 C136.247206,11.0130837 135.825091,10.790918 135.23378,10.790918 C134.80995,10.790918 134.454484,10.9438705 134.167374,11.2497803 C133.880263,11.55569 133.728165,11.9444801 133.711075,12.4161621 L136.761612,12.4161621 Z" id="Download-on-the" fill="#FFFFFF"></path>
                    <path d="M55.6870117,27.9147461 L53.8032715,22.4324707 L51.8012695,27.9147461 L55.6870117,27.9147461 Z M52.9247559,20.5909668 L54.8253906,20.5909668 L59.3277832,33 L57.4862793,33 L56.2276367,29.2832031 L51.3197754,29.2832031 L49.9766602,33 L48.253418,33 L52.9247559,20.5909668 Z M64.472168,31.9778809 C65.1817418,31.9778809 65.7716366,31.6808217 66.2418701,31.0866943 C66.7121036,30.492567 66.9472168,29.6042051 66.9472168,28.421582 C66.9472168,27.7007451 66.8430349,27.0812851 66.634668,26.5631836 C66.2404603,25.5664013 65.5196341,25.0680176 64.472168,25.0680176 C63.4190703,25.0680176 62.6982441,25.5945585 62.309668,26.6476563 C62.101301,27.2108101 61.9971191,27.9260048 61.9971191,28.7932617 C61.9971191,29.4915725 62.101301,30.0856909 62.309668,30.5756348 C62.7038757,31.5104702 63.4247018,31.9778809 64.472168,31.9778809 Z M60.5357422,23.9952148 L62.0140137,23.9952148 L62.0140137,25.1947266 C62.3181168,24.7836242 62.6503725,24.4654471 63.010791,24.2401855 C63.523261,23.9022932 64.1258266,23.7333496 64.8185059,23.7333496 C65.8434459,23.7333496 66.7135055,24.1261435 67.4287109,24.9117432 C68.1439163,25.6973428 68.5015137,26.81941 68.5015137,28.2779785 C68.5015137,30.249017 67.9862356,31.6568805 66.9556641,32.5016113 C66.3024056,33.0366075 65.5421593,33.3041016 64.6749023,33.3041016 C63.9934862,33.3041016 63.4218936,33.154868 62.9601074,32.8563965 C62.6897936,32.6874503 62.3885108,32.3974304 62.05625,31.9863281 L62.05625,36.6069824 L60.5357422,36.6069824 L60.5357422,23.9952148 Z M74.0936035,31.9778809 C74.8031774,31.9778809 75.3930722,31.6808217 75.8633057,31.0866943 C76.3335391,30.492567 76.5686523,29.6042051 76.5686523,28.421582 C76.5686523,27.7007451 76.4644704,27.0812851 76.2561035,26.5631836 C75.8618958,25.5664013 75.1410697,25.0680176 74.0936035,25.0680176 C73.0405058,25.0680176 72.3196797,25.5945585 71.9311035,26.6476563 C71.7227366,27.2108101 71.6185547,27.9260048 71.6185547,28.7932617 C71.6185547,29.4915725 71.7227366,30.0856909 71.9311035,30.5756348 C72.3253112,31.5104702 73.0461373,31.9778809 74.0936035,31.9778809 Z M70.1571777,23.9952148 L71.6354492,23.9952148 L71.6354492,25.1947266 C71.9395523,24.7836242 72.2718081,24.4654471 72.6322266,24.2401855 C73.1446966,23.9022932 73.7472622,23.7333496 74.4399414,23.7333496 C75.4648814,23.7333496 76.3349411,24.1261435 77.0501465,24.9117432 C77.7653519,25.6973428 78.1229492,26.81941 78.1229492,28.2779785 C78.1229492,30.249017 77.6076712,31.6568805 76.5770996,32.5016113 C75.9238411,33.0366075 75.1635948,33.3041016 74.2963379,33.3041016 C73.6149217,33.3041016 73.0433291,33.154868 72.581543,32.8563965 C72.3112291,32.6874503 72.0099463,32.3974304 71.6776855,31.9863281 L71.6776855,36.6069824 L70.1571777,36.6069824 L70.1571777,23.9952148 Z M86.004248,28.9959961 C86.0436688,29.6999384 86.2097967,30.271531 86.5026367,30.710791 C87.060159,31.5329956 88.0428478,31.9440918 89.4507324,31.9440918 C90.0814647,31.9440918 90.6558731,31.8539885 91.1739746,31.6737793 C92.1763885,31.3246239 92.6775879,30.6995325 92.6775879,29.7984863 C92.6775879,29.1227017 92.4664084,28.6412124 92.044043,28.3540039 C91.616046,28.072427 90.945903,27.8274587 90.0335937,27.6190918 L88.3525879,27.2389648 C87.2544379,26.9911771 86.4772972,26.7180516 86.0211426,26.4195801 C85.2327272,25.9014785 84.8385254,25.1271536 84.8385254,24.096582 C84.8385254,22.9815374 85.22428,22.0664261 85.9958008,21.3512207 C86.7673216,20.6360153 87.8598237,20.278418 89.2733398,20.278418 C90.5742253,20.278418 91.6793981,20.5923715 92.5888916,21.2202881 C93.4983851,21.8482046 93.953125,22.8520113 93.953125,24.2317383 L92.3734863,24.2317383 C92.2890132,23.5672167 92.1088067,23.0575701 91.8328613,22.7027832 C91.3203913,22.0551563 90.4503317,21.7313477 89.2226562,21.7313477 C88.2315055,21.7313477 87.5191265,21.9397115 87.085498,22.3564453 C86.6518696,22.7731792 86.4350586,23.2574842 86.4350586,23.809375 C86.4350586,24.4175812 86.688474,24.862466 87.1953125,25.144043 C87.5275733,25.3242522 88.2793724,25.5495104 89.4507324,25.8198242 L91.1908691,26.2168457 C92.0299684,26.408318 92.6775856,26.6701806 93.1337402,27.0024414 C93.9221556,27.5824899 94.3163574,28.4243923 94.3163574,29.5281738 C94.3163574,30.9022692 93.8165659,31.884958 92.8169678,32.4762695 C91.8173697,33.0675811 90.6558823,33.3632324 89.3324707,33.3632324 C87.7894291,33.3632324 86.5814822,32.9690306 85.7085938,32.1806152 C84.8357053,31.3978314 84.4077148,30.3363023 84.4246094,28.9959961 L86.004248,28.9959961 Z M96.5464355,21.4272461 L98.0838379,21.4272461 L98.0838379,23.9529785 L99.5283203,23.9529785 L99.5283203,25.1947266 L98.0838379,25.1947266 L98.0838379,31.0993652 C98.0838379,31.4147314 98.1908355,31.6259109 98.404834,31.7329102 C98.5230963,31.7948571 98.7201972,31.8258301 98.9961426,31.8258301 C99.0693526,31.8258301 99.1481929,31.8244222 99.232666,31.8216064 C99.3171391,31.8187907 99.4156895,31.8117514 99.5283203,31.8004883 L99.5283203,33 C99.3537426,33.0506838 99.1721282,33.0872883 98.9834717,33.1098145 C98.7948151,33.1323406 98.5906749,33.1436035 98.3710449,33.1436035 C97.6614711,33.1436035 97.1799817,32.9619891 96.9265625,32.5987549 C96.6731433,32.2355206 96.5464355,31.7638864 96.5464355,31.1838379 L96.5464355,25.1947266 L95.321582,25.1947266 L95.321582,23.9529785 L96.5464355,23.9529785 L96.5464355,21.4272461 Z M104.638916,32.0201172 C105.646961,32.0201172 106.338222,31.6385862 106.71272,30.8755127 C107.087217,30.1124392 107.274463,29.2634975 107.274463,28.3286621 C107.274463,27.4839313 107.139308,26.7968939 106.868994,26.2675293 C106.440997,25.4340616 105.703277,25.017334 104.655811,25.017334 C103.726607,25.017334 103.050832,25.3721156 102.628467,26.0816895 C102.206101,26.7912633 101.994922,27.6472443 101.994922,28.6496582 C101.994922,29.6126513 102.206101,30.4151335 102.628467,31.0571289 C103.050832,31.6991243 103.720975,32.0201172 104.638916,32.0201172 Z M104.698047,23.6911133 C105.863775,23.6911133 106.84928,24.0796836 107.65459,24.8568359 C108.4599,25.6339883 108.862549,26.7771734 108.862549,28.2864258 C108.862549,29.7449943 108.507767,30.9501254 107.798193,31.9018555 C107.088619,32.8535855 105.98767,33.3294434 104.495312,33.3294434 C103.250742,33.3294434 102.262422,32.9084922 101.530322,32.0665771 C100.798222,31.2246621 100.432178,30.0941477 100.432178,28.675 C100.432178,27.1544846 100.817932,25.943722 101.589453,25.0426758 C102.360974,24.1416296 103.397161,23.6911133 104.698047,23.6911133 Z M110.7125,23.9529785 L112.156982,23.9529785 L112.156982,25.5157227 C112.275245,25.2116196 112.565265,24.8413515 113.027051,24.4049072 C113.488837,23.968463 114.021009,23.7502441 114.623584,23.7502441 C114.651742,23.7502441 114.699609,23.7530599 114.767188,23.7586914 C114.834766,23.7643229 114.950211,23.7755859 115.113525,23.7924805 L115.113525,25.3974609 C115.023421,25.3805663 114.940357,25.3693034 114.864331,25.3636719 C114.788305,25.3580403 114.705241,25.3552246 114.615137,25.3552246 C113.849247,25.3552246 113.260761,25.6016007 112.849658,26.0943604 C112.438556,26.58712 112.233008,27.154489 112.233008,27.7964844 L112.233008,33 L110.7125,33 L110.7125,23.9529785 Z M120.198779,23.7502441 C120.840775,23.7502441 121.46305,23.9008855 122.065625,24.2021729 C122.6682,24.5034602 123.127163,24.8934384 123.442529,25.3721191 C123.746632,25.8282738 123.949365,26.3604462 124.050732,26.9686523 C124.140837,27.3853862 124.185889,28.0498978 124.185889,28.962207 L117.554785,28.962207 C117.582943,29.8801478 117.799754,30.6164604 118.205225,31.171167 C118.610695,31.7258735 119.238603,32.0032227 120.088965,32.0032227 C120.883012,32.0032227 121.51655,31.74136 121.9896,31.217627 C122.259913,30.9135239 122.451383,30.561558 122.564014,30.1617187 L124.05918,30.1617187 C124.019759,30.4939795 123.888828,30.8642476 123.666382,31.2725342 C123.443936,31.6808207 123.194744,32.0144844 122.918799,32.2735352 C122.457013,32.7240582 121.88542,33.0281568 121.204004,33.1858398 C120.837954,33.2759445 120.424042,33.3209961 119.962256,33.3209961 C118.835948,33.3209961 117.881417,32.9113078 117.098633,32.0919189 C116.315849,31.2725301 115.924463,30.1251213 115.924463,28.6496582 C115.924463,27.1967213 116.318665,26.0169316 117.10708,25.1102539 C117.895495,24.2035762 118.926052,23.7502441 120.198779,23.7502441 Z M122.623145,27.754248 C122.561198,27.095358 122.417596,26.5688171 122.192334,26.1746094 C121.7756,25.4425094 121.080116,25.0764648 120.105859,25.0764648 C119.407549,25.0764648 118.821877,25.3284724 118.348828,25.8324951 C117.875779,26.3365178 117.625179,26.9770957 117.597021,27.754248 L122.623145,27.754248 Z" id="App-Store" fill="#FFFFFF"></path>
                    <path d="M33.7114556,33.3932133 C32.4831267,35.18152 31.2125333,36.9588267 29.20645,36.99608 C27.2321389,37.0333333 26.5992067,35.83184 24.3463344,35.83184 C22.0910978,35.83184 21.3856067,36.9588267 19.521523,37.0333333 C17.5848509,37.1054933 16.1122306,35.10188 14.8737789,33.32164 C12.3436608,29.6816667 10.4125747,23.0296 13.0096804,18.5403973 C14.2957609,16.3109613 16.6002667,14.90038 19.0975486,14.8631413 C20.9994633,14.8282933 22.7961456,16.1397133 23.9578267,16.1397133 C25.1212811,16.1397133 27.3020378,14.5652027 29.5946622,14.796144 C30.5543311,14.835612 33.2477289,15.1811293 34.9774678,17.7010093 C34.8407733,17.7904613 31.7625622,19.5734 31.8000978,23.28788 C31.8377811,27.7249867 35.7055689,29.1998667 35.7504933,29.21996 C35.71547,29.32424 35.1321911,31.3255067 33.7114556,33.3932133 Z M25.2885656,9.92189733 C26.3503489,8.68319467 28.1443711,7.76184933 29.6249567,7.69994133 C29.8141122,9.42056133 29.1188178,11.1435573 28.09191,12.38512 C27.0629333,13.6244533 25.3785622,14.589872 23.72552,14.4609667 C23.5008978,12.7775853 24.3340689,11.021956 25.2885656,9.92189733 Z" id="logo" fill="#FFFFFF" fill-rule="nonzero"></path>
                </g>
            </g>
        </g>
    </g>
</svg>