<?xml version="1.0" encoding="UTF-8"?>
<svg width="150px" height="45px" viewBox="0 0 150 45" version="1.1" xmlns="http://www.w3.org/2000/svg" xmlns:xlink="http://www.w3.org/1999/xlink">
    <!-- Generator: Sketch 52.1 (67048) - http://www.bohemiancoding.com/sketch -->
    <title>Google play</title>
    <desc>Created with Sketch.</desc>
    <g id="Page-5" stroke="none" stroke-width="1" fill="none" fill-rule="evenodd">
        <g id="Landing" transform="translate(-650.000000, -2228.000000)">
            <g id="Google-play" transform="translate(650.000000, 2228.000000)">
                <g id="google-white">
                    <g id="google-play">
                        <g id="Google-Play">
                            <rect id="button" stroke="#FFFFFF" stroke-width="0.7" fill="#101E51" x="0.35" y="0.35" width="148.4" height="44.1" rx="7"></rect>
                            <path d="M51.9409129,14.728418 C52.2861295,14.728418 52.5698181,14.6925297 52.7919871,14.620752 C53.1884735,14.4874505 53.5131773,14.2311054 53.7661082,13.851709 C53.9677694,13.5475082 54.1130316,13.1578637 54.2018992,12.6827637 C54.253169,12.3990708 54.2788035,12.1358899 54.2788035,11.8932129 C54.2788035,10.9601028 54.0933806,10.2355006 53.7225291,9.71938477 C53.3516777,9.2032689 52.7543936,8.94521484 51.930659,8.94521484 L50.1208446,8.94521484 L50.1208446,14.728418 L51.9409129,14.728418 Z M49.0954539,8.06850586 L52.145991,8.06850586 C53.1816408,8.06850586 53.9848554,8.43593383 54.555659,9.17080078 C55.0649389,9.83389003 55.319575,10.6832468 55.319575,11.7188965 C55.319575,12.5187052 55.1691859,13.2415983 54.8684032,13.8875977 C54.3386153,15.0292049 53.4277358,15.6 52.1357371,15.6 L49.0954539,15.6 L49.0954539,8.06850586 Z M59.5279833,15.0052734 C60.1398027,15.0052734 60.5593542,14.7737084 60.7866503,14.3105713 C61.0139463,13.8474342 61.1275926,13.3321806 61.1275926,12.7647949 C61.1275926,12.252097 61.0455622,11.835109 60.8814989,11.5138184 C60.621732,11.0079565 60.1739825,10.7550293 59.5382372,10.7550293 C58.9742695,10.7550293 58.5641174,10.9703592 58.3077684,11.4010254 C58.0514195,11.8316916 57.9232469,12.3512177 57.9232469,12.9596191 C57.9232469,13.5440947 58.0514195,14.0311504 58.3077684,14.4208008 C58.5641174,14.8104512 58.9708516,15.0052734 59.5279833,15.0052734 Z M59.5638719,9.95009766 C60.271395,9.95009766 60.8695336,10.1859351 61.3583055,10.6576172 C61.8470775,11.1292992 62.0914598,11.82314 62.0914598,12.7391602 C62.0914598,13.6244185 61.8761299,14.3558565 61.4454637,14.9334961 C61.0147975,15.5111357 60.3465913,15.7999512 59.4408251,15.7999512 C58.6854502,15.7999512 58.0856027,15.5444606 57.6412645,15.0334717 C57.1969264,14.5224828 56.9747606,13.8363324 56.9747606,12.975 C56.9747606,12.0521438 57.2088891,11.3172879 57.6771532,10.7704102 C58.1454172,10.2235324 58.7743172,9.95009766 59.5638719,9.95009766 Z M64.4541649,10.1090332 L65.5103173,14.4361816 L66.5818505,10.1090332 L67.617495,10.1090332 L68.6941552,14.4105469 L69.8169579,10.1090332 L70.7398095,10.1090332 L69.145327,15.6 L68.1865868,15.6 L67.068911,11.3497559 L65.9871239,15.6 L65.0283837,15.6 L63.4441552,10.1090332 L64.4541649,10.1090332 Z M72.4513915,10.1090332 L73.3281005,10.1090332 L73.3281005,10.8883301 C73.5878674,10.5670394 73.8630112,10.3363288 74.15354,10.1961914 C74.4440688,10.056054 74.7670636,9.98598633 75.1225341,9.98598633 C75.9018349,9.98598633 76.4281968,10.2577121 76.7016357,10.8011719 C76.8520271,11.0985366 76.9272216,11.5240695 76.9272216,12.0777832 L76.9272216,15.6 L75.9889892,15.6 L75.9889892,12.1393066 C75.9889892,11.804344 75.9394291,11.5343272 75.8403075,11.329248 C75.6762442,10.9874495 75.3788839,10.8165527 74.9482177,10.8165527 C74.7294666,10.8165527 74.550025,10.8387693 74.4098876,10.8832031 C74.1569567,10.9583988 73.9347909,11.1087879 73.7433837,11.334375 C73.5895744,11.5155282 73.4895998,11.7026602 73.443457,11.8957764 C73.3973142,12.0888926 73.3742431,12.3648908 73.3742431,12.7237793 L73.3742431,15.6 L72.4513915,15.6 L72.4513915,10.1090332 Z M79.1566259,8.06850586 L80.0794775,8.06850586 L80.0794775,15.6 L79.1566259,15.6 L79.1566259,8.06850586 Z M84.48271,15.0052734 C85.0945294,15.0052734 85.5140809,14.7737084 85.741377,14.3105713 C85.968673,13.8474342 86.0823193,13.3321806 86.0823193,12.7647949 C86.0823193,12.252097 86.0002889,11.835109 85.8362256,11.5138184 C85.5764587,11.0079565 85.1287092,10.7550293 84.4929639,10.7550293 C83.9289962,10.7550293 83.5188441,10.9703592 83.2624951,11.4010254 C83.0061462,11.8316916 82.8779736,12.3512177 82.8779736,12.9596191 C82.8779736,13.5440947 83.0061462,14.0311504 83.2624951,14.4208008 C83.5188441,14.8104512 83.9255783,15.0052734 84.48271,15.0052734 Z M84.5185986,9.95009766 C85.2261217,9.95009766 85.8242602,10.1859351 86.3130322,10.6576172 C86.8018042,11.1292992 87.0461865,11.82314 87.0461865,12.7391602 C87.0461865,13.6244185 86.8308566,14.3558565 86.4001904,14.9334961 C85.9695242,15.5111357 85.301318,15.7999512 84.3955518,15.7999512 C83.6401769,15.7999512 83.0403294,15.5444606 82.5959912,15.0334717 C82.151653,14.5224828 81.9294873,13.8363324 81.9294873,12.975 C81.9294873,12.0521438 82.1636158,11.3172879 82.6318799,10.7704102 C83.1001439,10.2235324 83.7290439,9.95009766 84.5185986,9.95009766 Z M89.6908741,14.1388184 C89.6908741,14.4054213 89.7882852,14.6156242 89.9831104,14.7694336 C90.1779356,14.923243 90.4086462,15.0001465 90.6752491,15.0001465 C90.9999577,15.0001465 91.3144077,14.9249519 91.6186084,14.7745605 C92.1313063,14.5250476 92.3876514,14.1166044 92.3876514,13.5492187 L92.3876514,12.8058105 C92.2748579,12.8775882 92.1295956,12.9374021 91.9518604,12.9852539 C91.7741251,13.0331057 91.5998105,13.0672851 91.4289112,13.087793 L90.8700733,13.1595703 C90.5351107,13.2040041 90.2838925,13.2740718 90.1164112,13.3697754 C89.8327183,13.5304207 89.6908741,13.7867658 89.6908741,14.1388184 Z M91.9262256,12.2726074 C92.1381407,12.2452635 92.279985,12.1563972 92.3517627,12.0060059 C92.3927786,11.9239742 92.4132862,11.8060555 92.4132862,11.6522461 C92.4132862,11.3377914 92.3013488,11.1096443 92.0774707,10.9677979 C91.8535927,10.8259514 91.5331613,10.7550293 91.116167,10.7550293 C90.634231,10.7550293 90.2924376,10.8849108 90.0907764,11.1446777 C89.9779829,11.2882331 89.9044973,11.5018541 89.8703174,11.7855469 L89.0089893,11.7855469 C89.0260792,11.1087857 89.2456815,10.6379652 89.6678028,10.3730713 C90.089924,10.1081774 90.5795431,9.97573242 91.1366748,9.97573242 C91.7826742,9.97573242 92.3073271,10.0987781 92.7106494,10.344873 C93.1105538,10.590968 93.310503,10.9737767 93.310503,11.4933105 L93.310503,14.6566406 C93.310503,14.7523442 93.3301561,14.8292478 93.3694629,14.8873535 C93.4087698,14.9454593 93.4916547,14.9745117 93.6181201,14.9745117 C93.659136,14.9745117 93.7052781,14.9719483 93.7565479,14.9668213 C93.8078177,14.9616943 93.8625046,14.954004 93.9206104,14.94375 L93.9206104,15.6256348 C93.777055,15.6666506 93.6676811,15.6922851 93.5924854,15.7025391 C93.5172897,15.712793 93.4147517,15.7179199 93.2848682,15.7179199 C92.9669955,15.7179199 92.7362849,15.6051281 92.5927295,15.379541 C92.5175338,15.2599115 92.4645558,15.0907238 92.433794,14.8719727 C92.2458048,15.1180676 91.9757879,15.3316885 91.6237354,15.5128418 C91.2716828,15.693995 90.8837473,15.7845703 90.459917,15.7845703 C89.9506371,15.7845703 89.5345036,15.6299088 89.2115039,15.3205811 C88.8885043,15.0112533 88.7270069,14.6241722 88.7270069,14.1593262 C88.7270069,13.6500463 88.8859408,13.2552748 89.2038135,12.975 C89.5216862,12.6947252 89.9386742,12.5221195 90.4547901,12.4571777 L91.9262256,12.2726074 Z M96.2474268,12.9186035 C96.2474268,13.5064971 96.3721814,13.9986797 96.6216944,14.395166 C96.8712074,14.7916524 97.2711057,14.9898926 97.8214014,14.9898926 C98.2486497,14.9898926 98.5998424,14.8061786 98.8749903,14.4387451 C99.1501382,14.0713116 99.28771,13.5440952 99.28771,12.8570801 C99.28771,12.163229 99.1458657,11.6496843 98.8621729,11.3164307 C98.5784801,10.983177 98.2281418,10.8165527 97.8111475,10.8165527 C97.3463015,10.8165527 96.9694742,10.9942853 96.6806544,11.3497559 C96.3918346,11.7052264 96.2474268,12.2281704 96.2474268,12.9186035 Z M97.6368311,10.0116211 C98.0572434,10.0116211 98.4092906,10.1004874 98.6929835,10.2782227 C98.8570468,10.3807622 99.0433242,10.5602038 99.2518214,10.8165527 L99.2518214,8.04287109 L100.138784,8.04287109 L100.138784,15.6 L99.3082178,15.6 L99.3082178,14.836084 C99.0928847,15.1744646 98.8382486,15.4188469 98.5443018,15.5692383 C98.250355,15.7196297 97.9136885,15.7948242 97.5342921,15.7948242 C96.9224726,15.7948242 96.3926927,15.5376246 95.9449366,15.0232178 C95.4971804,14.5088109 95.2733057,13.8243695 95.2733057,12.969873 C95.2733057,12.1700644 95.4775273,11.4770781 95.8859766,10.8908936 C96.2944259,10.304709 96.8780383,10.0116211 97.6368311,10.0116211 Z M108.278745,15.0052734 C108.890565,15.0052734 109.310116,14.7737084 109.537412,14.3105713 C109.764708,13.8474342 109.878355,13.3321806 109.878355,12.7647949 C109.878355,12.252097 109.796324,11.835109 109.632261,11.5138184 C109.372494,11.0079565 108.924745,10.7550293 108.288999,10.7550293 C107.725031,10.7550293 107.314879,10.9703592 107.05853,11.4010254 C106.802181,11.8316916 106.674009,12.3512177 106.674009,12.9596191 C106.674009,13.5440947 106.802181,14.0311504 107.05853,14.4208008 C107.314879,14.8104512 107.721614,15.0052734 108.278745,15.0052734 Z M108.314634,9.95009766 C109.022157,9.95009766 109.620296,10.1859351 110.109068,10.6576172 C110.597839,11.1292992 110.842222,11.82314 110.842222,12.7391602 C110.842222,13.6244185 110.626892,14.3558565 110.196226,14.9334961 C109.76556,15.5111357 109.097353,15.7999512 108.191587,15.7999512 C107.436212,15.7999512 106.836365,15.5444606 106.392026,15.0334717 C105.947688,14.5224828 105.725523,13.8363324 105.725523,12.975 C105.725523,12.0521438 105.959651,11.3172879 106.427915,10.7704102 C106.896179,10.2235324 107.525079,9.95009766 108.314634,9.95009766 Z M112.77939,10.1090332 L113.656099,10.1090332 L113.656099,10.8883301 C113.915866,10.5670394 114.191009,10.3363288 114.481538,10.1961914 C114.772067,10.056054 115.095062,9.98598633 115.450532,9.98598633 C116.229833,9.98598633 116.756195,10.2577121 117.029634,10.8011719 C117.180025,11.0985366 117.25522,11.5240695 117.25522,12.0777832 L117.25522,15.6 L116.316987,15.6 L116.316987,12.1393066 C116.316987,11.804344 116.267427,11.5343272 116.168306,11.329248 C116.004243,10.9874495 115.706882,10.8165527 115.276216,10.8165527 C115.057465,10.8165527 114.878023,10.8387693 114.737886,10.8832031 C114.484955,10.9583988 114.262789,11.1087879 114.071382,11.334375 C113.917573,11.5155282 113.817598,11.7026602 113.771455,11.8957764 C113.725312,12.0888926 113.702241,12.3648908 113.702241,12.7237793 L113.702241,15.6 L112.77939,15.6 L112.77939,10.1090332 Z" id="Download-on" fill="#FFFFFF"></path>
                            <path d="M11.2,34.4846006 L11.2,10.318214 C11.2,9.47490666 11.6889084,8.74594893 12.3983984,8.4 L26.3774986,22.3972848 L12.3927763,36.4 C11.6863245,36.0529991 11.2,35.325733 11.2,34.4846006 Z M30.8124146,26.8377873 L15.5271594,35.6741555 L27.5822715,23.6034718 L30.8124146,26.8377873 Z M35.5636439,20.7072015 C36.0720451,21.0968489 36.4,21.7108173 36.4,22.4014073 C36.4,23.08162 36.0819831,23.6873434 35.5866434,24.0777016 L32.3398896,25.9547191 L28.7869025,22.3972848 L32.3374761,18.8420966 L35.5636439,20.7072015 Z M15.5361179,9.12932733 L30.8100011,17.9590853 L27.5822715,21.1909557 L15.5361179,9.12932733 Z" id="logo" fill="#FFFFFF" fill-rule="nonzero"></path>
                        </g>
                    </g>
                </g>
                <g id="Shape-3" transform="translate(48.000000, 22.000000)" fill="#FFFFFF" fill-rule="nonzero">
                    <path d="M26.4837269,4.44917761 C24.1296178,4.44917761 22.2659481,6.15311797 22.2659481,8.51970181 C22.2659481,10.7916223 24.1296178,12.590226 26.4837269,12.590226 C28.8378359,12.590226 30.7015056,10.8862856 30.7015056,8.51970181 C30.7015056,6.05845462 28.8378359,4.44917761 26.4837269,4.44917761 Z M26.4837269,10.8862856 C25.2085845,10.8862856 24.1296178,9.84498876 24.1296178,8.42503846 C24.1296178,7.00508816 25.2085845,5.96379127 26.4837269,5.96379127 C27.7588693,5.96379127 28.8378359,6.9104248 28.8378359,8.42503846 C28.8378359,9.84498876 27.7588693,10.8862856 26.4837269,10.8862856 Z M17.3615543,4.44917761 C15.0074452,4.44917761 13.1437756,6.15311797 13.1437756,8.51970181 C13.1437756,10.7916223 15.0074452,12.590226 17.3615543,12.590226 C19.7156633,12.590226 21.579333,10.8862856 21.579333,8.51970181 C21.579333,6.05845462 19.7156633,4.44917761 17.3615543,4.44917761 Z M17.3615543,10.8862856 C16.0864119,10.8862856 15.0074452,9.84498876 15.0074452,8.42503846 C15.0074452,7.00508816 16.0864119,5.96379127 17.3615543,5.96379127 C18.6366967,5.96379127 19.7156633,6.9104248 19.7156633,8.42503846 C19.7156633,9.84498876 18.6366967,10.8862856 17.3615543,10.8862856 Z M6.4737999,5.67980121 L6.4737999,7.38374157 L10.6915786,7.38374157 C10.5934907,8.3303751 10.2011392,9.08768193 9.71069985,9.5609987 C9.12217259,10.1289788 8.14129381,10.7916223 6.4737999,10.7916223 C3.82542721,10.7916223 1.86366967,8.80369187 1.86366967,6.24778133 C1.86366967,3.69187078 3.92351509,1.70394036 6.4737999,1.70394036 C7.84703018,1.70394036 8.92599683,2.27192048 9.71069985,2.93456396 L10.9858423,1.70394036 C9.90687561,0.757306828 8.53364532,-1.42108547e-13 6.57188778,-1.42108547e-13 C3.0407242,-1.42108547e-13 0,2.8399006 0,6.24778133 C0,9.65566205 3.0407242,12.4955627 6.57188778,12.4955627 C8.53364532,12.4955627 9.90687561,11.9275825 11.0839301,10.6969589 C12.2609847,9.5609987 12.6533362,7.95172169 12.6533362,6.72109809 C12.6533362,6.34244468 12.6533362,5.96379127 12.5552483,5.67980121 L6.4737999,5.67980121 Z M51.0056962,7.00508816 C50.6133447,6.05845462 49.6324659,4.44917761 47.4745326,4.44917761 C45.3165993,4.44917761 43.5510175,6.05845462 43.5510175,8.51970181 C43.5510175,10.7916223 45.3165993,12.590226 47.6707084,12.590226 C49.534378,12.590226 50.7114326,11.4542658 51.1037841,10.7916223 L49.7305538,9.84498876 C49.2401144,10.5076322 48.6515871,10.980949 47.6707084,10.980949 C46.6898296,10.980949 46.1013023,10.6022956 45.6108629,9.75032541 L51.2018719,7.47840492 L51.0056962,7.00508816 Z M45.3165993,8.3303751 C45.3165993,6.81576145 46.5917417,5.96379127 47.4745326,5.96379127 C48.1611477,5.96379127 48.8477629,6.34244468 49.0439386,6.81576145 L45.3165993,8.3303751 Z M40.7064691,12.2115726 L42.5701387,12.2115726 L42.5701387,0.378653414 L40.7064691,0.378653414 L40.7064691,12.2115726 Z M37.7638328,5.30114779 C37.2733934,4.82783103 36.4886903,4.35451426 35.5078116,4.35451426 C33.4479662,4.35451426 31.4862086,6.15311797 31.4862086,8.42503846 C31.4862086,10.6969589 33.3498783,12.4008993 35.5078116,12.4008993 C36.4886903,12.4008993 37.2733934,11.9275825 37.6657449,11.4542658 L37.7638328,11.4542658 L37.7638328,12.0222459 C37.7638328,13.5368595 36.8810419,14.3888297 35.5078116,14.3888297 C34.4288449,14.3888297 33.6441419,13.6315229 33.4479662,12.9688794 L31.8785601,13.6315229 C32.3689995,14.6728198 33.546054,15.9981067 35.6058995,15.9981067 C37.7638328,15.9981067 39.5294145,14.7674831 39.5294145,11.8329192 L39.5294145,4.63850432 L37.7638328,4.63850432 L37.7638328,5.30114779 Z M35.6058995,10.8862856 C34.330757,10.8862856 33.2517904,9.84498876 33.2517904,8.42503846 C33.2517904,7.00508816 34.330757,5.96379127 35.6058995,5.96379127 C36.8810419,5.96379127 37.8619206,7.00508816 37.8619206,8.42503846 C37.8619206,9.84498876 36.8810419,10.8862856 35.6058995,10.8862856 Z M59.5393415,0.378653414 L55.125387,0.378653414 L55.125387,12.2115726 L56.9890567,12.2115726 L56.9890567,7.76239498 L59.5393415,7.76239498 C61.5991869,7.76239498 63.5609445,6.34244468 63.5609445,4.0705242 C63.5609445,1.79860372 61.5991869,0.378653414 59.5393415,0.378653414 Z M59.6374294,6.05845462 L56.9890567,6.05845462 L56.9890567,1.98793042 L59.6374294,1.98793042 C61.0106597,1.98793042 61.7953627,3.12389066 61.7953627,3.97586084 C61.6972748,5.01715773 60.9125718,6.05845462 59.6374294,6.05845462 Z M70.9175353,4.35451426 C69.544305,4.35451426 68.1710747,4.92249438 67.6806353,6.15311797 L69.3481292,6.81576145 C69.7404807,6.15311797 70.329008,5.96379127 71.0156232,5.96379127 C71.9965019,5.96379127 72.8792928,6.53177139 72.9773807,7.47840492 L72.9773807,7.57306828 C72.6831171,7.38374157 71.898414,7.09975151 71.113711,7.09975151 C69.3481292,7.09975151 67.5825474,8.04638504 67.5825474,9.75032541 C67.5825474,11.3596024 69.0538656,12.4008993 70.6232716,12.4008993 C71.898414,12.4008993 72.4869413,11.8329192 72.9773807,11.2649391 L73.0754686,11.2649391 L73.0754686,12.2115726 L74.8410504,12.2115726 L74.8410504,7.66773163 C74.6448746,5.58513785 72.9773807,4.35451426 70.9175353,4.35451426 Z M70.7213595,10.8862856 C70.1328323,10.8862856 69.2500414,10.6022956 69.2500414,9.84498876 C69.2500414,8.89835522 70.329008,8.61436516 71.2117989,8.61436516 C71.9965019,8.61436516 72.3888534,8.80369187 72.8792928,8.99301858 C72.6831171,10.1289788 71.7022383,10.8862856 70.7213595,10.8862856 Z M81.0205866,4.63850432 L78.9607412,9.75032541 L78.8626533,9.75032541 L76.70472,4.63850432 L74.7429625,4.63850432 L77.9798624,11.8329192 L76.1161928,15.80878 L77.9798624,15.80878 L82.9823442,4.63850432 L81.0205866,4.63850432 Z M64.5418233,12.2115726 L66.4054929,12.2115726 L66.4054929,0.378653414 L64.5418233,0.378653414 L64.5418233,12.2115726 Z" id="Shape"></path>
                </g>
            </g>
        </g>
    </g>
</svg>